<?xml version="1.0" encoding="UTF-8" standalone="no"?>
<svg
   viewBox="0 0 68 68"
   version="1.1"
   id="svg279"
   sodipodi:docname="logo-small-TJweb.svg"
   inkscape:version="1.2.2 (b0a8486541, 2022-12-01)"
   xmlns:inkscape="http://www.inkscape.org/namespaces/inkscape"
   xmlns:sodipodi="http://sodipodi.sourceforge.net/DTD/sodipodi-0.dtd"
   xmlns="http://www.w3.org/2000/svg"
   xmlns:svg="http://www.w3.org/2000/svg">
  <defs
     id="defs283" />
  <sodipodi:namedview
     id="namedview281"
     pagecolor="#ffffff"
     bordercolor="#000000"
     borderopacity="0.25"
     inkscape:showpageshadow="2"
     inkscape:pageopacity="0.0"
     inkscape:pagecheckerboard="0"
     inkscape:deskcolor="#d1d1d1"
     showgrid="false"
     inkscape:zoom="6.1838235"
     inkscape:cx="71.96195"
     inkscape:cy="62.825208"
     inkscape:window-width="1883"
     inkscape:window-height="997"
     inkscape:window-x="3840"
     inkscape:window-y="0"
     inkscape:window-maximized="1"
     inkscape:current-layer="svg279" />
  <path
     d="M 64.6,16.2 C 63,9.9 58.1,5 51.8,3.4 40,1.5 28,1.5 16.2,3.4 9.9,5 5,9.9 3.4,16.2 1.5,28 1.5,40 3.4,51.8 5,58.1 9.9,63 16.2,64.6 28,66.5 40,66.5 51.8,64.6 58.1,63 63,58.1 64.6,51.8 66.5,40 66.5,28 64.6,16.2 Z"
     fill="#0054a6"
     id="path277"
     sodipodi:nodetypes="ccccccccc" />
  <path
     d="m 45.942912,29.665426 c -1.556183,-3.146365 -3.634932,-6.155553 -5.80083,-8.842508 0.31341,-1.220072 0.585184,-2.378602 0.821451,-3.463756 1.056105,-0.09715 1.918118,-0.867929 2.155245,-1.877769 1.172195,-0.156543 2.367736,-0.268867 3.581137,-0.327397 0.967451,1.98719 1.511104,4.217209 1.511104,6.571819 0,2.911926 -0.831457,5.63288 -2.268107,7.939611 z M 40.780739,8.7450699 c -0.06811,0.662218 -0.220777,1.9730931 -0.516218,3.7761961 -1.067187,0.209802 -1.885409,1.114958 -1.966102,2.222275 -0.991872,0.230135 -1.958356,0.484478 -2.895357,0.757111 -0.42326,-0.434019 -0.837052,-0.849424 -1.236857,-1.242989 -0.860181,-0.846626 -1.69508,-1.633647 -2.482963,-2.353534 0.131583,-0.300067 0.205605,-0.630692 0.205605,-0.978854 0,-0.415189 -0.104578,-0.80628 -0.287912,-1.1492761 0.839634,-1.100431 1.777711,-2.13136 2.822519,-3.058141 2.304796,0.194091 4.463269,0.909244 6.357285,2.027212 z M 30.42616,8.6859999 c -0.301899,-0.13341 -0.634782,-0.208832 -0.985418,-0.208832 -0.468985,0 -0.906124,0.134917 -1.278817,0.364516 -0.421214,-0.347839 -0.791969,-0.647479 -1.100001,-0.892461 1.56974,-0.696323 3.279561,-1.131524 5.074596,-1.251165 -0.609175,0.6322 -1.17779,1.297966 -1.71036,1.987942 z m -0.985418,4.6874841 c 0.416804,0 0.809184,-0.105114 1.153042,-0.289631 0.964869,0.883315 2.00505,1.872283 3.078045,2.950335 -2.513735,0.818114 -4.776784,1.741991 -6.697376,2.625199 0.616061,-1.750061 1.379521,-3.55198 2.322549,-5.293218 0.04777,0.0028 0.09511,0.0073 0.14374,0.0073 z m -5.461382,9.890758 c -0.09371,0.402711 -0.181288,0.799718 -0.263273,1.190378 -0.315884,-0.658021 -0.596372,-1.293018 -0.846304,-1.899826 0.467803,-0.264779 0.964223,-0.538381 1.490017,-0.817793 -0.138792,0.523104 -0.265533,1.033833 -0.38044,1.527241 z m 0.509547,6.293269 c 0.08607,-0.0077 0.171068,-0.01958 0.254451,-0.03604 1.539938,2.353642 3.50776,4.787115 6.016545,7.076848 -2.45725,-0.393135 -4.718147,-1.381995 -6.628732,-2.814451 0.02636,-0.685887 0.108558,-2.207856 0.357736,-4.226353 z m 1.634509,-0.84469 c 0.368281,-0.428424 0.59239,-0.984126 0.59239,-1.592119 0,-0.997145 -0.60003,-1.855392 -1.457199,-2.236689 0.0879,-0.423477 0.182365,-0.854159 0.28436,-1.290974 0.209692,-0.898485 0.459625,-1.85464 0.753991,-2.844038 0.119211,-0.05831 0.23842,-0.116627 0.359781,-0.175048 2.24261,-1.079344 5.060179,-2.268 8.261629,-3.260734 1.157884,1.213293 2.332877,2.518469 3.473546,3.895408 -1.19597,4.494252 -2.954424,9.75713 -5.519156,15.117698 -2.877605,-2.427124 -5.075994,-5.068139 -6.749342,-7.613504 z M 36.650247,16.807868 c 0.671684,-0.184195 1.357786,-0.358167 2.056477,-0.51966 0.185807,0.275646 0.427347,0.509869 0.706759,0.690406 -0.160631,0.740004 -0.338372,1.515406 -0.535261,2.322332 -0.748181,-0.875676 -1.496471,-1.709283 -2.227975,-2.493078 z m 9.17851,-3.203709 c -0.971107,0.06509 -1.92995,0.162459 -2.87373,0.287586 -0.231427,-0.495774 -0.623162,-0.901281 -1.109362,-1.149491 0.202914,-1.240837 0.339876,-2.253691 0.428961,-2.9910041 1.396306,1.0668621 2.601745,2.3710701 3.554131,3.8529091 z M 25.500577,8.7541049 c 0.354402,0.275754 0.921508,0.72505 1.646022,1.3249721 -0.0978,0.264132 -0.153963,0.548386 -0.153963,0.846087 0,0.725696 0.319112,1.376723 0.822419,1.825482 -1.220072,2.279618 -2.14427,4.645095 -2.843284,6.871672 -0.974982,0.489212 -1.871959,0.96928 -2.684479,1.424816 -1.340573,-3.719175 -1.708424,-6.626582 -1.793205,-7.482569 1.271823,-1.965134 2.988637,-3.6161021 5.00649,-4.8104601 z m -6.267124,7.2069221 c 0.281457,1.490015 0.779275,3.5381 1.649681,5.896799 -1.14433,0.680507 -2.050453,1.26924 -2.685666,1.699385 -0.07327,-0.60046 -0.111678,-1.211465 -0.111678,-1.831399 0,-2.040984 0.408841,-3.988043 1.147663,-5.764785 z m -0.722145,9.322252 c 0.528484,-0.371831 1.546178,-1.062776 2.965829,-1.916181 0.284039,0.678465 0.605409,1.389741 0.967666,2.125121 -0.387324,0.433157 -0.625206,1.002847 -0.625206,1.628483 0,0.853943 0.440151,1.605998 1.104735,2.044319 -0.168916,1.327985 -0.267253,2.455206 -0.324276,3.302048 -1.972449,-1.937374 -3.415017,-4.411732 -4.088748,-7.18379 z m 15.93786,11.448339 c 2.328464,-4.917298 3.993745,-9.745834 5.177451,-13.985421 2.044212,2.630254 3.904983,5.47698 5.257928,8.409779 -2.507817,3.114626 -6.226883,5.213924 -10.435379,5.575642 z"
     id="path332"
     style="fill:#ffffff;stroke-width:0.10759" />
  <text
     xml:space="preserve"
     style="font-weight:bold;font-size:16px;font-family:Coiny;-inkscape-font-specification:'Coiny Bold';fill:#ffffff;stroke:#0f9dac;stroke-width:0"
     x="7.3676195"
     y="51.64209"
     id="text436"><tspan
       sodipodi:role="line"
       id="tspan434"
       x="7.3676195"
       y="51.64209"
       style="font-size:16px">TJweb</tspan></text>
</svg>
