<?xml version="1.0" encoding="UTF-8" standalone="no"?>
<svg
   viewBox="0 0 246.98868 64.050003"
   version="1.1"
   id="svg6"
   sodipodi:docname="logo-TJweb-normal-horizintal-colorOrange.svg"
   inkscape:version="1.2.2 (b0a8486541, 2022-12-01)"
   inkscape:export-filename="logo-TJweb-normal-horizintal-colorOrange.png"
   inkscape:export-xdpi="96"
   inkscape:export-ydpi="96"
   width="246.98868"
   height="64.050003"
   xmlns:inkscape="http://www.inkscape.org/namespaces/inkscape"
   xmlns:sodipodi="http://sodipodi.sourceforge.net/DTD/sodipodi-0.dtd"
   xmlns="http://www.w3.org/2000/svg"
   xmlns:svg="http://www.w3.org/2000/svg">
  <defs
     id="defs10" />
  <sodipodi:namedview
     id="namedview8"
     pagecolor="#ffffff"
     bordercolor="#000000"
     borderopacity="0.25"
     inkscape:showpageshadow="2"
     inkscape:pageopacity="0.0"
     inkscape:pagecheckerboard="0"
     inkscape:deskcolor="#d1d1d1"
     showgrid="false"
     inkscape:zoom="2.0009293"
     inkscape:cx="104.70135"
     inkscape:cy="56.223876"
     inkscape:window-width="1883"
     inkscape:window-height="997"
     inkscape:window-x="3840"
     inkscape:window-y="0"
     inkscape:window-maximized="1"
     inkscape:current-layer="svg6">
    <inkscape:page
       x="0"
       y="0"
       width="246.98868"
       height="64.050003"
       id="page4734"
       inkscape:label="logoTJweb-Horizontal"
       inkscape:export-filename="./logoTJweb-Horizontal.png"
       inkscape:export-xdpi="96"
       inkscape:export-ydpi="96" />
    <inkscape:page
       x="0"
       y="-84.624939"
       width="48"
       height="48"
       id="page4736"
       inkscape:label="icon 48x48" />
  </sodipodi:namedview>
  <path
     d="m 62.625,14.225 c -1.6,-6.3 -6.5,-11.2 -12.8,-12.8 -11.8,-1.9 -23.8,-1.9 -35.6,0 -6.3,1.6 -11.2,6.5 -12.8,12.8 -1.9,11.8 -1.9,23.8 0,35.6 1.6,6.3 6.5,11.2 12.8,12.8 11.8,1.9 23.8,1.9 35.6,0 6.3,-1.6 11.2,-6.5 12.8,-12.8 1.9,-11.8 1.9,-23.8 0,-35.6 z"
     fill="#0054a6"
     id="path2"
     sodipodi:nodetypes="ccccccccc"
     style="fill:#e4805c;fill-opacity:1" />
  <text
     xml:space="preserve"
     style="font-size:48px;font-family:'Janda Cheerful Script';-inkscape-font-specification:'Janda Cheerful Script';fill:#e4805c;fill-opacity:1;stroke:#0f9dac;stroke-width:0"
     x="88.492729"
     y="48.297001"
     id="text271"><tspan
       sodipodi:role="line"
       id="tspan269"
       x="88.492729"
       y="48.297001"
       style="font-style:normal;font-variant:normal;font-weight:bold;font-stretch:normal;font-size:48px;font-family:Coiny;-inkscape-font-specification:'Coiny Bold';font-variant-ligatures:normal;font-variant-caps:normal;font-variant-numeric:normal;font-variant-east-asian:normal;fill:#e4805c;fill-opacity:1">TJweb</tspan></text>
  <path
     d="m 47.145279,41.23298 c -1.822429,-3.68467 -4.256831,-7.2087 -6.793288,-10.35536 0.367032,-1.428815 0.685301,-2.785557 0.961992,-4.05637 1.236792,-0.113775 2.246287,-1.016422 2.523984,-2.199036 1.372744,-0.183327 2.772829,-0.314868 4.193831,-0.383411 1.13297,2.327177 1.769635,4.938728 1.769635,7.696187 0,3.41012 -0.973708,6.5966 -2.656154,9.29799 z m -6.045367,-24.4996 c -0.07975,0.775514 -0.258547,2.310669 -0.604535,4.422264 -1.249772,0.245694 -2.207983,1.305713 -2.302481,2.60248 -1.161572,0.269507 -2.293409,0.567366 -3.390722,0.886645 -0.495674,-0.508275 -0.98026,-0.994752 -1.448468,-1.455651 -1.007352,-0.991474 -1.985094,-1.913148 -2.907772,-2.756197 0.154095,-0.351409 0.240782,-0.738598 0.240782,-1.146327 0,-0.486225 -0.12247,-0.944225 -0.337171,-1.345907 0.983285,-1.288702 2.081858,-2.496013 3.305422,-3.581356 2.69912,0.2273 5.226884,1.064806 7.444945,2.374049 z M 28.973778,16.6642 c -0.35355,-0.156238 -0.743385,-0.244562 -1.154012,-0.244562 -0.549225,0 -1.061153,0.158003 -1.497608,0.42688 -0.493281,-0.407349 -0.927469,-0.758254 -1.288199,-1.04515 1.838304,-0.815456 3.840658,-1.325117 5.942803,-1.465226 -0.713399,0.740362 -1.379296,1.520035 -2.002984,2.328058 z m -1.154012,5.489463 c 0.488115,0 0.947626,-0.123099 1.350315,-0.339185 1.129947,1.034441 2.348092,2.19261 3.604666,3.455107 -2.943808,0.958085 -5.594042,2.040026 -7.843225,3.074341 0.721462,-2.049477 1.615541,-4.159685 2.71991,-6.198831 0.05595,0.0033 0.111384,0.0086 0.168334,0.0086 z M 21.423999,33.73662 c -0.109744,0.47161 -0.212303,0.93654 -0.308314,1.39404 -0.369929,-0.7706 -0.698406,-1.51424 -0.991097,-2.22486 0.547838,-0.31008 1.12919,-0.6305 1.744941,-0.95771 -0.162538,0.6126 -0.310962,1.21071 -0.44553,1.78853 z m 0.596727,7.36998 c 0.100799,-0.009 0.200335,-0.0229 0.297985,-0.0422 1.803402,2.75633 4.1079,5.60614 7.045912,8.28762 -2.877661,-0.46039 -5.525373,-1.61844 -7.762841,-3.29597 0.03087,-0.80323 0.127133,-2.5856 0.418944,-4.94944 z m 1.914156,-0.98921 c 0.43129,-0.50172 0.693742,-1.1525 0.693742,-1.86451 0,-1.16774 -0.702687,-2.17283 -1.706511,-2.61936 0.10294,-0.49593 0.213564,-1.0003 0.33301,-1.51185 0.245571,-1.0522 0.538262,-2.17195 0.882993,-3.33062 0.139603,-0.0683 0.279209,-0.13658 0.421335,-0.205 2.626294,-1.264005 5.92592,-2.656027 9.675104,-3.818607 1.355987,1.420875 2.732006,2.949352 4.067832,4.561867 -1.400588,5.26318 -3.459893,11.42647 -6.463424,17.70418 -3.369932,-2.84238 -5.944441,-5.93524 -7.904081,-8.9161 z M 36.262737,26.17564 c 0.786604,-0.21571 1.590092,-0.419448 2.408321,-0.608569 0.217597,0.322806 0.50046,0.597103 0.827677,0.808526 -0.188114,0.866611 -0.396264,1.774676 -0.626837,2.719658 -0.876189,-1.025493 -1.752501,-2.001724 -2.609161,-2.919615 z m 10.748858,-3.75183 c -1.137254,0.07622 -2.260145,0.190255 -3.365396,0.336789 -0.27102,-0.580595 -0.729779,-1.05548 -1.299161,-1.346157 0.237631,-1.45313 0.398026,-2.639273 0.502353,-3.502733 1.635196,1.249391 3.046873,2.776735 4.162204,4.512101 z M 23.20548,16.743962 c 0.415037,0.322933 1.07917,0.849098 1.927638,1.551662 -0.114532,0.309323 -0.180304,0.642208 -0.180304,0.990844 0,0.849854 0.37371,1.612266 0.963128,2.137802 -1.428814,2.669637 -2.511133,5.43982 -3.32974,8.047341 -1.14179,0.572909 -2.192231,1.135109 -3.143765,1.668589 -1.569931,-4.355487 -2.000717,-7.760322 -2.100003,-8.762759 1.489417,-2.301346 3.499961,-4.234779 5.863046,-5.633479 z m -7.33936,8.43995 c 0.329611,1.744941 0.912601,4.143433 1.931922,6.905678 -1.340111,0.79693 -2.401262,1.48639 -3.145153,1.99013 -0.0858,-0.70319 -0.130785,-1.41873 -0.130785,-2.14473 0,-2.390175 0.478792,-4.670355 1.344016,-6.751078 z M 15.020424,36.1011 c 0.6189,-0.43545 1.810713,-1.24461 3.473251,-2.24402 0.332634,0.79454 0.708988,1.62752 1.133221,2.48871 -0.453592,0.50727 -0.73217,1.17442 -0.73217,1.9071 0,1.00004 0.515455,1.88076 1.293743,2.39408 -0.197817,1.55519 -0.312979,2.87526 -0.379757,3.86699 -2.309915,-2.26884 -3.99929,-5.16653 -4.788288,-8.41286 z m 18.664655,13.40703 c 2.72684,-5.7586 4.677032,-11.41324 6.063257,-16.37818 2.393954,3.08026 4.573085,6.41404 6.157504,9.8486 -2.93688,3.64751 -7.292239,6.10597 -12.220761,6.52958 z"
     id="path448"
     style="fill:#f9f9f9;stroke-width:0.125997" />
</svg>
